<svg xmlns="http://www.w3.org/2000/svg" width="1440.205" height="563.1" viewBox="0 0 1440.205 563.1"><defs><style>.a{fill:#e5f6ed;}.b{fill:#d6ebe0;opacity:0.699;}.c{fill:#dfebfd;}.d{fill:#bad4f4;}.e{fill:#9fc1f4;}.f{fill:#f0f6ff;}.g{fill:#ed7d2b;}.h{fill:#abddda;}.i{fill:#ffb27d;}.j{fill:#0f2549;}.k{fill:#8e312d;}.l,.x{fill:#233862;}.m{fill:#a9453d;}.n{fill:#ed975d;}.o{fill:#fff;}.p{fill:#afcdfb;}.q{fill:#95b3ef;}.r{fill:#142d5e;}.s{fill:#2b478b;}.t{fill:#ffa561;}.u{fill:#77a4e5;}.v{fill:#f9ddbf;}.w{fill:#eac3a2;}.x,.y{opacity:0.2;}.z{fill:#f99746;}.aa{fill:#2d53a0;}.ab{fill:#ed985f;}.ac{fill:#1a3670;}.ad{fill:#ea8b49;}.ae{fill:#163560;}.af{fill:#e8945b;}.ag{fill:#ebf3fa;}.ah{fill:#fca56b;}.ai{fill:#1c468a;}.aj{fill:#466aa5;}.ak{fill:#cde0fb;}</style></defs><g transform="translate(0.205 2.1)"><path class="a" d="M0,0H1440V561H0Z"/><path class="b" d="M0,0H508V541H0Z"/><g transform="translate(-243.8 -607.236)"><g transform="translate(1465.26 759.476)"><rect class="c" width="94.375" height="133.59"/><rect class="d" width="36.057" height="44.976" transform="translate(51.975 10.495)"/><g transform="translate(8.378 11.09)"><rect class="d" width="23.364" height="2.38" transform="translate(0 51.786)"/><rect class="d" width="36.402" height="2.38"/><rect class="d" width="36.402" height="2.38" transform="translate(0 10.313)"/><g transform="translate(0 15.472)"><rect class="d" width="20.503" height="2.38"/><rect class="d" width="15.323" height="2.38" transform="translate(22.532)"/></g><g transform="translate(0 5.16)"><rect class="d" width="14.586" height="2.38"/><rect class="d" width="14.586" height="2.38" transform="translate(18.198)"/></g><rect class="d" width="17.345" height="2.38" transform="translate(61.625 51.786)"/><rect class="d" width="17.345" height="2.38" transform="translate(26.204 51.786)"/><rect class="d" width="13.058" height="2.38" transform="translate(45.876 51.786)"/></g><g transform="translate(8.378 70.024)"><rect class="d" width="39.37" height="2.38"/><rect class="d" width="17.345" height="2.38" transform="translate(41.832)"/><rect class="d" width="17.345" height="2.38" transform="translate(61.625)"/></g><g transform="translate(8.378 77.165)"><rect class="d" width="30.971" height="2.38"/><rect class="d" width="17.345" height="2.38" transform="translate(61.625)"/><rect class="d" width="22.755" height="2.38" transform="translate(34.501)"/></g><g transform="translate(8.378 84.57)"><rect class="d" width="39.37" height="2.38"/><rect class="d" width="17.345" height="2.38" transform="translate(41.832)"/><rect class="d" width="17.345" height="2.38" transform="translate(61.625)"/></g><g transform="translate(8.378 96.627)"><rect class="d" width="23.364" height="2.38"/><rect class="d" width="17.345" height="2.38" transform="translate(61.625)"/><rect class="d" width="17.345" height="2.38" transform="translate(26.204)"/><rect class="d" width="13.058" height="2.38" transform="translate(45.876)"/></g><g transform="translate(8.378 103.775)"><rect class="d" width="39.37" height="2.38"/><rect class="d" width="17.345" height="2.38" transform="translate(41.832)"/><rect class="d" width="17.345" height="2.38" transform="translate(61.625)"/></g><g transform="translate(8.378 110.916)"><rect class="d" width="30.971" height="2.38"/><rect class="d" width="17.345" height="2.38" transform="translate(61.625)"/><rect class="d" width="22.755" height="2.38" transform="translate(34.501)"/></g><g transform="translate(8.378 118.321)"><rect class="d" width="39.37" height="2.38"/><rect class="d" width="17.345" height="2.38" transform="translate(41.832)"/><rect class="d" width="17.345" height="2.38" transform="translate(61.625)"/></g></g><g transform="translate(343.8 748.535)"><path class="e" d="M821.028,901.205H762.419a4.9,4.9,0,0,1-4.889-4.889V839.749a4.9,4.9,0,0,1,4.889-4.889h58.609a4.9,4.9,0,0,1,4.889,4.889v56.567A4.9,4.9,0,0,1,821.028,901.205Z" transform="translate(-757.53 -834.86)"/><path class="f" d="M819.9,899.7H766.37a4.483,4.483,0,0,1-4.47-4.47V843.56a4.484,4.484,0,0,1,4.47-4.47H819.9a4.483,4.483,0,0,1,4.47,4.47v51.671A4.483,4.483,0,0,1,819.9,899.7Z" transform="translate(-758.945 -836.229)"/><g transform="translate(8.067 7.506)"><g transform="translate(24.71)"><path class="e" d="M806,847.373a1.417,1.417,0,1,1,1.413,1.42A1.413,1.413,0,0,1,806,847.373Z" transform="translate(-806 -845.96)"/><path class="e" d="M822.815,850.661a1.417,1.417,0,1,1,.548,1.927A1.413,1.413,0,0,1,822.815,850.661Z" transform="translate(-811.386 -847.246)"/><path class="e" d="M837.078,862.411a1.418,1.418,0,1,1-.419,1.961A1.419,1.419,0,0,1,837.078,862.411Z" transform="translate(-815.851 -851.213)"/><path class="e" d="M843.88,880.33a1.42,1.42,0,1,1-1.42,1.42A1.42,1.42,0,0,1,843.88,880.33Z" transform="translate(-817.805 -857.088)"/><path class="e" d="M839.743,900.8a1.415,1.415,0,1,1-2,0A1.412,1.412,0,0,1,839.743,900.8Z" transform="translate(-816.142 -863.581)"/><path class="e" d="M826.583,913.991a1.415,1.415,0,1,1-2,0A1.412,1.412,0,0,1,826.583,913.991Z" transform="translate(-811.881 -867.852)"/><path class="e" d="M806,920.313a1.417,1.417,0,1,1,1.413,1.42A1.413,1.413,0,0,1,806,920.313Z" transform="translate(-806 -869.576)"/></g><g transform="translate(0 2.686)"><path class="e" d="M791.938,850.661a1.417,1.417,0,1,0-.548,1.927A1.413,1.413,0,0,0,791.938,850.661Z" transform="translate(-775.878 -849.932)"/><path class="e" d="M777.682,862.411a1.418,1.418,0,1,0,.419,1.961A1.419,1.419,0,0,0,777.682,862.411Z" transform="translate(-771.413 -853.898)"/><path class="e" d="M770.88,880.33a1.42,1.42,0,1,0,1.42,1.42A1.42,1.42,0,0,0,770.88,880.33Z" transform="translate(-769.46 -859.774)"/><circle class="e" cx="1.42" cy="1.42" r="1.42" transform="translate(3.476 34.115)"/><path class="e" d="M788.181,913.991a1.415,1.415,0,1,0,2,0A1.412,1.412,0,0,0,788.181,913.991Z" transform="translate(-775.387 -870.537)"/></g></g><g transform="translate(33.812 14.465)"><path class="e" d="M807.53,881.74a1.42,1.42,0,1,1,1.42,1.42A1.42,1.42,0,0,1,807.53,881.74Z" transform="translate(-807.53 -864.043)"/><g transform="translate(1.224)"><rect class="e" width="0.385" height="17.697"/></g><g transform="translate(0.87 9.853)"><rect class="e" width="11.929" height="1.163" transform="translate(0 7.368) rotate(-38.149)"/></g></g></g><g transform="translate(523.426 881.653)"><g transform="translate(0 70.795)"><g transform="translate(77.996 101.92)"><path class="g" d="M846.555,1370.98h.149a2.036,2.036,0,0,0,2.056-2.177l-8.176-81.682-7.134.636,11.746,82.115A1.32,1.32,0,0,0,846.555,1370.98Z" transform="translate(-833.45 -1287.12)"/></g><g transform="translate(10.134 101.926)"><path class="g" d="M735.31,1370.983h-.149a2.036,2.036,0,0,1-2.056-2.177l8.176-81.675,7.134.636-11.746,82.115A1.316,1.316,0,0,1,735.31,1370.983Z" transform="translate(-733.096 -1287.13)"/></g><g transform="translate(135.693 101.926)"><path class="g" d="M931.875,1370.983h.149a2.036,2.036,0,0,0,2.056-2.177L925.9,1287.13l-7.134.636,11.746,82.115A1.321,1.321,0,0,0,931.875,1370.983Z" transform="translate(-918.77 -1287.13)"/></g><path class="g" d="M732.9,1226.441l-14.519-71.687c-1.866-9.7,6.181-18.583,16.622-18.346l28,.642a22.116,22.116,0,0,1,20.74,15.966l21.24,73.425Z" transform="translate(-718.11 -1136.403)"/><path class="g" d="M745.879,1226.441l-14.519-71.687c-1.866-9.7,6.181-18.583,16.622-18.346l28,.642a22.116,22.116,0,0,1,20.74,15.966l21.24,73.425Z" transform="translate(-722.313 -1136.403)"/><path class="g" d="M744.024,1282.632H854.791a4.055,4.055,0,0,0,4.044-4.044V1273.6a4.055,4.055,0,0,0-4.044-4.044H739.98v9.028A4.055,4.055,0,0,0,744.024,1282.632Z" transform="translate(-725.191 -1179.515)"/><path class="g" d="M821.269,1282.628h70.612a3.27,3.27,0,0,0,3.259-3.26v-6.559a3.27,3.27,0,0,0-3.259-3.259H821.269a3.27,3.27,0,0,0-3.259,3.259v6.559A3.27,3.27,0,0,0,821.269,1282.628Z" transform="translate(-750.455 -1179.512)"/></g><g transform="translate(13.614)"><path class="h" d="M832.87,1152.416l11.766,29.775s11.334,13.362,20.449,9.055l-28.835-55.985Z" transform="translate(-768.88 -1065.238)"/><path class="i" d="M950.336,1391.34c-.338,3.286,4.24,4.139,9.542,4.463s3.692,1.393,10.955,2.786,10.2-.561,10.739-1.542c.48-.865-2.888-2.265-6.478-3.848-.453-.2-.906-.4-1.359-.6-4.037-1.826-6.275-5.491-9.406-8.9-2.962-3.226-5.7-13.491-5.7-13.491l-9.866-2.218s2.678,9.237,3.6,13.18c.541,2.32-.325,4.9-1.089,6.857A13.347,13.347,0,0,0,950.336,1391.34Z" transform="translate(-806.401 -1140.588)"/><path class="j" d="M960.626,1405.4c5.308.324,3.692,1.393,10.955,2.786s10.2-.561,10.739-1.542c.48-.866-2.888-2.265-6.478-3.848l-.054.061a20.7,20.7,0,0,1-11.023.014c-4.8-1.359-9.42-4.287-12.727-5.248a13.058,13.058,0,0,0-.947,3.32C950.746,1404.227,955.318,1405.079,960.626,1405.4Z" transform="translate(-807.15 -1150.181)"/><path class="k" d="M883.436,1219.38c-5.308-3.726-39.749-20.084-57.669-22l-20.483-7.486s-16.859,24.973-16.994,44.077c-.061,8.906,4.044,9.792,4.044,9.792s63.5.473,66.278.757c4.558.467,10.563,11.821,12.071,22.153s27.983,52.381,27.983,52.381,5.518,1.772,8.074,1.616a8.077,8.077,0,0,0,4.017-1.082S895.405,1227.786,883.436,1219.38Z" transform="translate(-754.446 -1082.925)"/><path class="i" d="M926.046,1391.34c-.338,3.286,4.24,4.139,9.542,4.463s3.692,1.393,10.955,2.786,10.2-.561,10.739-1.542c.48-.865-2.888-2.265-6.478-3.848-.453-.2-.906-.4-1.359-.6-4.037-1.826-6.275-5.491-9.406-8.9-2.962-3.226-5.7-13.491-5.7-13.491l-9.866-2.218s2.678,9.237,3.6,13.18c.541,2.32-.325,4.9-1.089,6.857A13.641,13.641,0,0,0,926.046,1391.34Z" transform="translate(-798.537 -1140.588)"/><path class="l" d="M936.336,1405.4c5.308.324,3.692,1.393,10.955,2.786s10.2-.561,10.739-1.542c.48-.866-2.888-2.265-6.478-3.848l-.054.061a20.7,20.7,0,0,1-11.023.014c-4.8-1.359-9.42-4.287-12.727-5.248a13.061,13.061,0,0,0-.947,3.32C926.456,1404.227,931.034,1405.079,936.336,1405.4Z" transform="translate(-799.285 -1150.181)"/><path class="m" d="M863.115,1219.38c-4.612-3.239-16.216-4.707-33.081-10.2-4.064-1.325-19.7-8.859-20.733-13l7.716-3.564-32.053-2.718a85.872,85.872,0,0,0-8.243,34.826c-.061,8.906,7.817,19.043,7.817,19.049s50.968.473,53.754.757c4.558.467,10.563,11.821,12.071,22.153s27.982,52.381,27.982,52.381,5.525,1.772,8.074,1.616a8.076,8.076,0,0,0,4.017-1.082S875.091,1227.786,863.115,1219.38Z" transform="translate(-750.7 -1082.925)"/><path class="l" d="M803,1034.923c-4.9-2.57-12.341-2.915-13.552-3.084-14.478-1.948-23.188,19.09-23.7,25.467-.947,11.753-7.161,13.538-15.912,20.9-17.541,14.755-12.4,31.9-2.806,38.268,5.755,3.821,15.9,0,15.9,0,.142.1,27.746-15.432,41.345-22.918C824.677,1090.658,815.473,1041.476,803,1034.923Z" transform="translate(-738.242 -1031.712)"/><path class="i" d="M820.27,1102.87c.061.034-6.431,2.989-11.124,1.44-4.409-1.454-8.3-8.095-8.237-8.108,1.914-.277,3.861-2.164,4.4-13.362l.845.216,14.255,3.6s-.561,4.517-.8,8.784C819.432,1099.036,819.472,1102.451,820.27,1102.87Z" transform="translate(-758.532 -1048.266)"/><path class="n" d="M822.751,1087.227s0,.926-.534,5.133c-8.061-2.035-11.618-4.707-14.127-7.77Z" transform="translate(-760.857 -1048.832)"/><path class="i" d="M823.512,1074.394s-18.853,3.07-20.584-8.7-5.329-19.3,6.634-21.755,14.965,1.691,16.5,5.478S828.368,1073.3,823.512,1074.394Z" transform="translate(-758.575 -1035.431)"/><path class="l" d="M821.077,1042.553s-8.561,13.511-16.2,16.716-11.395,1.576-11.395,1.576a32.221,32.221,0,0,0,4.382-12.348,5.821,5.821,0,0,1,3.577-4.659C806.923,1041.64,817.534,1038.177,821.077,1042.553Z" transform="translate(-756.126 -1034.541)"/><path class="l" d="M823.17,1043.769s5.018,2.57,7.087,4.984c1.995,2.326,4.294,8.642,4.132,11.476,0,0,2.475-13.585-2.678-18.258C826.24,1037.013,823.17,1043.769,823.17,1043.769Z" transform="translate(-765.739 -1034.445)"/><path class="o" d="M827.528,1137.334c-.575,38.322,13.552,27.6,9.359,31.228-1.008.872-5.146,7.4-20.733,8.169-11.76.588-32.966-4.964-33.751-7.134-2.712-7.513-.8-9.846-3.057-21.355-.237-1.224-.527-2.549-.872-3.99-1.887-7.9-3.719-10.59,2.969-23.283,6.066-11.5,13.2-20.841,13.768-20.5,16.006,9.5,16.554,1.535,16.554,1.535S827.805,1118.636,827.528,1137.334Z" transform="translate(-750.703 -1053.97)"/><path class="p" d="M828.53,1102.75s16.378,2.779,18.312,9.866,20.835,60.746,20.835,60.746-20.159.548-24.027-3.32-9.19-46.9-9.19-46.9Z" transform="translate(-767.474 -1054.712)"/><path class="i" d="M835.03,1199.04s2.428,3.131,3.226,3.51a2.433,2.433,0,0,0,1.312.284l-1.636-2.948Z" transform="translate(-769.579 -1085.888)"/><path class="i" d="M834.2,1194.27l7.06,3.428a1.25,1.25,0,0,1-1.17.453,16.92,16.92,0,0,1-3.063-.839Z" transform="translate(-769.31 -1084.343)"/><path class="q" d="M828.669,1099.05l-.149,2.5c1.86,6.4,5.011,26.177,8.933,41.487l2.739-21.917-2.252-1.839.845-3.1-7.384-14.018Z" transform="translate(-767.471 -1053.514)"/><path class="p" d="M797.931,1208.575c-25.264,8.453-36.361,3.273-36.361,3.273l4.125-24.426,2.252-13.322,4.835-28.591,8.257-27.185,7.222-4.375,6.3,31.56,1.657,31.032.081,1.494Z" transform="translate(-745.795 -1058.338)"/><path class="q" d="M775.958,1165.02c-.419.669-.44,13.653,11.794,16.831s-17.92,6.269-17.92,6.269-9.724-7.459-9.582-9.291S775.958,1165.02,775.958,1165.02Z" transform="translate(-745.367 -1074.873)"/><path class="q" d="M798.276,1206.842c-5.193,2.637-18.055,8.554-30.606,9.379l2.252-13.322,28.273,2.448Z" transform="translate(-747.77 -1087.137)"/><path class="i" d="M814.29,1195.71s11.591-2.583,13.464-1.555,6.445,4.774,7.013,6.079-4.166-.987-5.707-1.4c-1-.271-3.625.642-4.923,1.075-5.471,1.826-8.825.886-8.825.886Z" transform="translate(-762.864 -1084.227)"/><path class="p" d="M785.667,1100.48s-16.405.96-21.795,8.473c-7.587,10.576-22.634,55.667-14.012,61.679,9.711,6.769,44.2,1.772,44.2,1.772s1.15-5.363-.446-7.959-27.55-6.789-28.747-7.986,14.972-23.357,14.972-26.948S785.667,1100.48,785.667,1100.48Z" transform="translate(-741.166 -1053.977)"/><path class="q" d="M802.692,1097.36l3.327,42.785-7.608-16.385,1.305-2.915s-2.786-4.788-2.786-5.356.791-15.567.791-15.567Z" transform="translate(-757.243 -1052.967)"/></g><rect class="l" width="21.842" height="1.42" transform="translate(78.165 115.337)"/><g transform="translate(101.55 61.089)"><path class="r" d="M934.794,1166.742H868.28l12.084-44.692h66.514Z" transform="translate(-868.28 -1122.05)"/><path class="s" d="M937.9,1166.742H871.39l12.084-44.692h66.507Z" transform="translate(-869.287 -1122.05)"/><path class="r" d="M921.174,1190.09l-13.944.122,9.65-29.423,13.951-.128Z" transform="translate(-880.891 -1134.551)"/><rect class="r" width="30.458" height="1.4" transform="translate(17.724 54.261)"/></g></g><g transform="translate(365.458 998.423)"><rect class="t" width="375.898" height="160.673" transform="translate(12.091 9.089)"/><rect class="o" width="400.073" height="13.139" transform="translate(0)"/><rect class="o" width="375.898" height="16.947" transform="translate(12.091 67.365)"/><rect class="o" width="375.898" height="2.947" transform="translate(12.091 86.365)"/><rect class="o" width="375.898" height="2.947" transform="translate(12.091 62.365)"/></g><g transform="translate(1127.984 608.59)"><rect class="o" width="151.956" height="13.599" transform="translate(0 58.995)"/><rect class="o" width="1.413" height="58.988" transform="translate(21.619)"/><rect class="o" width="1.413" height="58.988" transform="translate(129.086)"/></g><g transform="translate(765.239 605.136)"><rect class="o" width="151.956" height="13.599" transform="translate(0 52.449)"/><path class="o" d="M1326.473,663.53v50.413h-1.413V663.726C1325.533,663.665,1326.007,663.6,1326.473,663.53Z" transform="translate(-1303.434 -661.494)"/><path class="o" d="M1485.383,652.38v52.449h-1.413V652.671C1484.443,652.569,1484.91,652.475,1485.383,652.38Z" transform="translate(-1354.884 -652.38)"/></g><g transform="translate(243.595 1060.939)"><g transform="translate(0 0)"><g transform="translate(56.754 42.379)"><path class="u" d="M257.263,1377.476s-7.425-8.669-.46-14.174c0,0,5.092-3.084,9.244-2.833,0,0-5.883,9.866-3.976,10.847s5.761-11.462,5.761-11.462,11.584-1.123,15.31.669c0,0-9.907,8.108-7.817,8.588s12.781-7.472,12.781-7.472,10.786,1.833,10.211,8.412-4.287,8.608-5.924,8.433S281.208,1374.663,281,1376s5.545,5.714,9.569,5.917c0,0-7.6,8.385-12.652,5.964s-5.484-6.255-8.635-7.7-5.836-1.434-4.538.034,7,2.894,8.8,6.079,3.415,5.336-1.812,4.551-13.728-4.612-14.1-8.994Z" transform="translate(-244.712 -1359.507)"/><g transform="translate(0 10.676)"><path class="u" d="M291.551,1375.346s-29.288-1.129-35.759,7.249a21.245,21.245,0,0,1-5.829,8.182l-.683,1.873s5.072-5.349,6.891-5.674C256.164,1386.97,253.324,1376.6,291.551,1375.346Z" transform="translate(-243.241 -1375.295)"/><path class="u" d="M247.072,1397.836a18.387,18.387,0,0,0-6.722,12.957l1.143.1s2.008-8.588,5.64-11.949S247.072,1397.836,247.072,1397.836Z" transform="translate(-240.35 -1382.354)"/></g></g><g transform="translate(0 18.851)"><path class="u" d="M199.761,1355.318s11.814-6.62,6.3-15.6c0,0-4.409-5.511-9.136-6.931,0,0,2.522,13.389,0,13.707s-1.731-15.127-1.731-15.127-12.449-5.985-17.332-5.511c0,0,7.723,13.078,5.2,12.76s-11.185-13.552-11.185-13.552-12.761-2.36-14.809,5.2,1.258,11.34,3.151,11.814,14.018.318,13.707,1.894-8.507,4.1-13.078,2.678c0,0,5.045,12.449,11.658,11.814s8.663-4.727,12.761-5.045,7.087.791,5.045,1.893-8.98.358-12.287,3.172-5.985,4.544.156,5.809,17.176.473,19.381-4.254S199.761,1355.318,199.761,1355.318Z" transform="translate(-156.423 -1324.714)"/><g transform="translate(6.469 7.916)"><path class="u" d="M165.99,1336.42s33.088,10.712,36.868,22.688a25.174,25.174,0,0,0,3.151,11.5v2.36s-3.469-8.034-5.356-9.136C200.647,1363.834,208.052,1353.434,165.99,1336.42Z" transform="translate(-165.99 -1336.42)"/><path class="u" d="M224.413,1386.274a21.827,21.827,0,0,1,2.191,17.176l-1.312-.352s1.271-10.387-1.393-15.614S224.413,1386.274,224.413,1386.274Z" transform="translate(-184.394 -1352.084)"/></g></g><g transform="translate(51.893)"><path class="e" d="M243.4,1337.163s-15.574-8.723-8.3-20.557c0,0,5.816-7.27,12.044-9.136,0,0-3.32,17.65,0,18.069s2.286-19.935,2.286-19.935,16.405-7.892,22.843-7.27c0,0-10.177,17.237-6.85,16.825s14.742-17.859,14.742-17.859,16.825-3.117,19.523,6.85-1.664,14.951-4.152,15.574-18.481.412-18.069,2.489,11.212,5.4,17.237,3.53c0,0-6.647,16.405-15.371,15.574s-11.422-6.228-16.825-6.647-9.346,1.041-6.647,2.5,11.841.473,16.2,4.186,7.892,5.991-.21,7.655-22.64.622-25.541-5.606Z" transform="translate(-233.161 -1296.837)"/><g transform="translate(2.01 10.423)"><path class="e" d="M294.916,1312.25s-43.61,14.12-48.594,29.9a33.117,33.117,0,0,1-4.152,15.161v3.117s4.571-10.59,7.06-12.044C249.223,1348.388,239.465,1334.681,294.916,1312.25Z" transform="translate(-238.088 -1312.25)"/><path class="e" d="M240.209,1377.962s-6.729,10.211-2.894,22.647l1.731-.467s-1.677-13.694,1.839-20.578S240.209,1377.962,240.209,1377.962Z" transform="translate(-236.133 -1332.898)"/></g></g><path class="e" d="M232.922,1437.642a30.511,30.511,0,0,0,30.512-30.512H202.41A30.511,30.511,0,0,0,232.922,1437.642Z" transform="translate(-171.312 -1332.546)"/><path class="p" d="M242.205,1437.405A30.513,30.513,0,0,1,207.9,1407.13h7.581A30.525,30.525,0,0,0,242.205,1437.405Z" transform="translate(-173.09 -1332.546)"/><rect class="e" width="62.721" height="0.933" transform="translate(30.097 74.584)"/></g><rect class="e" width="19.381" height="3.483" transform="translate(51.216 103.175)"/></g><g transform="translate(382.579 946.293)"><g transform="translate(0 0)"><g transform="translate(27.831 20.782)"><path class="u" d="M255.509,1368.319s-3.641-4.251-.225-6.951a9.7,9.7,0,0,1,4.533-1.389s-2.885,4.838-1.95,5.319,2.825-5.621,2.825-5.621,5.68-.551,7.508.328c0,0-4.858,3.976-3.833,4.212s6.267-3.664,6.267-3.664,5.289.9,5.007,4.125-2.1,4.221-2.9,4.135-5.485-1.874-5.588-1.217,2.719,2.8,4.692,2.9c0,0-3.727,4.112-6.2,2.925s-2.689-3.067-4.235-3.774-2.862-.7-2.225.017,3.432,1.419,4.318,2.981,1.675,2.616-.889,2.232-6.732-2.261-6.914-4.41Z" transform="translate(-249.355 -1359.507)"/><g transform="translate(0 5.235)"><path class="u" d="M270.009,1375.32s-14.362-.554-17.536,3.555a10.417,10.417,0,0,1-2.858,4.012l-.335.919s2.487-2.623,3.379-2.782C252.656,1381.02,251.263,1375.933,270.009,1375.32Z" transform="translate(-246.319 -1375.295)"/><path class="u" d="M243.646,1397.46a9.017,9.017,0,0,0-3.3,6.354l.56.05s.985-4.212,2.766-5.86S243.646,1397.46,243.646,1397.46Z" transform="translate(-240.35 -1389.868)"/></g></g><g transform="translate(0 9.244)"><path class="u" d="M177.675,1339.722s5.793-3.247,3.091-7.65c0,0-2.162-2.7-4.48-3.4,0,0,1.237,6.566,0,6.722s-.849-7.418-.849-7.418-6.1-2.935-8.5-2.7c0,0,3.787,6.413,2.55,6.257s-5.485-6.646-5.485-6.646-6.258-1.157-7.262,2.55.617,5.561,1.545,5.793,6.874.156,6.722.929-4.172,2.01-6.413,1.313c0,0,2.474,6.1,5.717,5.793s4.248-2.318,6.258-2.474,3.475.388,2.474.928-4.4.176-6.025,1.555-2.935,2.228.076,2.849,8.423.232,9.5-2.086S177.675,1339.722,177.675,1339.722Z" transform="translate(-156.423 -1324.714)"/><g transform="translate(3.172 3.882)"><path class="u" d="M165.99,1336.42s16.226,5.253,18.079,11.126a12.345,12.345,0,0,0,1.545,5.641v1.157s-1.7-3.94-2.626-4.48C182.985,1349.864,186.616,1344.763,165.99,1336.42Z" transform="translate(-165.99 -1336.42)"/><path class="u" d="M223.607,1385.523a10.7,10.7,0,0,1,1.074,8.423l-.643-.172s.623-5.094-.683-7.657S223.607,1385.523,223.607,1385.523Z" transform="translate(-203.982 -1368.757)"/></g></g><g transform="translate(25.447)"><path class="e" d="M238.181,1316.612s-7.637-4.278-4.072-10.081c0,0,2.852-3.565,5.906-4.48,0,0-1.628,8.655,0,8.861s1.121-9.776,1.121-9.776,8.045-3.87,11.2-3.565c0,0-4.991,8.453-3.359,8.25s7.229-8.758,7.229-8.758,8.25-1.529,9.574,3.359-.816,7.332-2.036,7.637-9.063.2-8.861,1.22,5.5,2.65,8.453,1.731c0,0-3.26,8.045-7.538,7.637s-5.6-3.054-8.251-3.26-4.583.511-3.26,1.224,5.807.232,7.942,2.053,3.87,2.938-.1,3.754-11.1.305-12.525-2.749Z" transform="translate(-233.161 -1296.837)"/><g transform="translate(0.986 5.111)"><path class="e" d="M268.036,1312.25s-21.386,6.924-23.83,14.664a16.24,16.24,0,0,1-2.036,7.435v1.529s2.242-5.193,3.462-5.906C245.629,1329.971,240.844,1323.25,268.036,1312.25Z" transform="translate(-240.168 -1312.25)"/><path class="e" d="M238.132,1376.974a14.1,14.1,0,0,0-1.419,11.106l.849-.229s-.822-6.715.9-10.091S238.132,1376.974,238.132,1376.974Z" transform="translate(-236.133 -1354.875)"/></g></g><path class="e" d="M217.372,1422.092a14.962,14.962,0,0,0,14.962-14.962H202.41A14.962,14.962,0,0,0,217.372,1422.092Z" transform="translate(-187.16 -1370.556)"/><path class="p" d="M224.723,1421.976A14.963,14.963,0,0,1,207.9,1407.13h3.717A14.969,14.969,0,0,0,224.723,1421.976Z" transform="translate(-190.83 -1370.556)"/><rect class="e" width="30.757" height="0.458" transform="translate(14.759 36.574)"/></g><rect class="e" width="9.504" height="1.708" transform="translate(25.115 50.595)"/></g><g transform="translate(1545.8 1060.939)"><g transform="translate(0 0)"><g transform="translate(56.754 42.379)"><path class="u" d="M257.263,1377.476s-7.425-8.669-.46-14.174c0,0,5.092-3.084,9.244-2.833,0,0-5.883,9.866-3.976,10.847s5.761-11.462,5.761-11.462,11.584-1.123,15.31.669c0,0-9.907,8.108-7.817,8.588s12.781-7.472,12.781-7.472,10.786,1.833,10.211,8.412-4.287,8.608-5.924,8.433S281.208,1374.663,281,1376s5.545,5.714,9.569,5.917c0,0-7.6,8.385-12.652,5.964s-5.484-6.255-8.635-7.7-5.836-1.434-4.538.034,7,2.894,8.8,6.079,3.415,5.336-1.812,4.551-13.728-4.612-14.1-8.994Z" transform="translate(-244.712 -1359.507)"/><g transform="translate(0 10.676)"><path class="u" d="M291.551,1375.346s-29.288-1.129-35.759,7.249a21.245,21.245,0,0,1-5.829,8.182l-.683,1.873s5.072-5.349,6.891-5.674C256.164,1386.97,253.324,1376.6,291.551,1375.346Z" transform="translate(-243.241 -1375.295)"/><path class="u" d="M247.072,1397.836a18.387,18.387,0,0,0-6.722,12.957l1.143.1s2.008-8.588,5.64-11.949S247.072,1397.836,247.072,1397.836Z" transform="translate(-240.35 -1382.354)"/></g></g><g transform="translate(0 18.851)"><path class="u" d="M199.761,1355.318s11.814-6.62,6.3-15.6c0,0-4.409-5.511-9.136-6.931,0,0,2.522,13.389,0,13.707s-1.731-15.127-1.731-15.127-12.449-5.985-17.332-5.511c0,0,7.723,13.078,5.2,12.76s-11.185-13.552-11.185-13.552-12.761-2.36-14.809,5.2,1.258,11.34,3.151,11.814,14.018.318,13.707,1.894-8.507,4.1-13.078,2.678c0,0,5.045,12.449,11.658,11.814s8.663-4.727,12.761-5.045,7.087.791,5.045,1.893-8.98.358-12.287,3.172-5.985,4.544.156,5.809,17.176.473,19.381-4.254S199.761,1355.318,199.761,1355.318Z" transform="translate(-156.423 -1324.714)"/><g transform="translate(6.469 7.916)"><path class="u" d="M165.99,1336.42s33.088,10.712,36.868,22.688a25.174,25.174,0,0,0,3.151,11.5v2.36s-3.469-8.034-5.356-9.136C200.647,1363.834,208.052,1353.434,165.99,1336.42Z" transform="translate(-165.99 -1336.42)"/><path class="u" d="M224.413,1386.274a21.827,21.827,0,0,1,2.191,17.176l-1.312-.352s1.271-10.387-1.393-15.614S224.413,1386.274,224.413,1386.274Z" transform="translate(-184.394 -1352.084)"/></g></g><g transform="translate(51.893)"><path class="e" d="M243.4,1337.163s-15.574-8.723-8.3-20.557c0,0,5.816-7.27,12.044-9.136,0,0-3.32,17.65,0,18.069s2.286-19.935,2.286-19.935,16.405-7.892,22.843-7.27c0,0-10.177,17.237-6.85,16.825s14.742-17.859,14.742-17.859,16.825-3.117,19.523,6.85-1.664,14.951-4.152,15.574-18.481.412-18.069,2.489,11.212,5.4,17.237,3.53c0,0-6.647,16.405-15.371,15.574s-11.422-6.228-16.825-6.647-9.346,1.041-6.647,2.5,11.841.473,16.2,4.186,7.892,5.991-.21,7.655-22.64.622-25.541-5.606Z" transform="translate(-233.161 -1296.837)"/><g transform="translate(2.01 10.423)"><path class="e" d="M294.916,1312.25s-43.61,14.12-48.594,29.9a33.117,33.117,0,0,1-4.152,15.161v3.117s4.571-10.59,7.06-12.044C249.223,1348.388,239.465,1334.681,294.916,1312.25Z" transform="translate(-238.088 -1312.25)"/><path class="e" d="M240.209,1377.962s-6.729,10.211-2.894,22.647l1.731-.467s-1.677-13.694,1.839-20.578S240.209,1377.962,240.209,1377.962Z" transform="translate(-236.133 -1332.898)"/></g></g><path class="e" d="M232.922,1437.642a30.511,30.511,0,0,0,30.512-30.512H202.41A30.511,30.511,0,0,0,232.922,1437.642Z" transform="translate(-171.312 -1332.546)"/><path class="p" d="M242.205,1437.405A30.513,30.513,0,0,1,207.9,1407.13h7.581A30.525,30.525,0,0,0,242.205,1437.405Z" transform="translate(-173.09 -1332.546)"/><rect class="e" width="62.721" height="0.933" transform="translate(30.097 74.584)"/></g><rect class="e" width="19.381" height="3.483" transform="translate(51.216 103.175)"/></g><g transform="translate(1464.07 758.286)"><path class="d" d="M2153.48,849.28V985.25h96.762V849.28Zm94.375,133.59H2155.86V851.66h91.995Z" transform="translate(-2153.48 -849.28)"/></g><g transform="translate(1293.619 885.224)"><g transform="translate(101.037 108.384)"><path class="l" d="M1370.535,1210.774a1.385,1.385,0,0,0,1.251-.8l4.639-9.947H1391.8a1.38,1.38,0,1,0,0-2.759h-16.257a1.386,1.386,0,0,0-1.251.8l-5,10.745a1.379,1.379,0,0,0,.669,1.833A1.32,1.32,0,0,0,1370.535,1210.774Z" transform="translate(-1369.16 -1197.27)"/></g><path class="l" d="M1369.593,1200.386h11.814a2.092,2.092,0,0,0,2.083-2.083h0a2.092,2.092,0,0,0-2.083-2.083h-11.814a2.092,2.092,0,0,0-2.083,2.083h0A2.088,2.088,0,0,0,1369.593,1200.386Z" transform="translate(-1257.315 -1088.546)"/><path class="i" d="M1383.313,1192.918c-.385.291-7.242-.575-9.447.818s-4.328,5.254-3.334,6.634,5.68-2.759,7.06-2.691a26.87,26.87,0,0,0,5.335-1.156Z" transform="translate(-1259.011 -1087.475)"/><path class="v" d="M1296.714,1165.782a5.506,5.506,0,0,0-.7,2.333,4.685,4.685,0,0,0,.7,2.705,87.162,87.162,0,0,0,17.217-.629c4.964-.717,10.123-2.036,14.16-4.409,5.484-3.226,10.576-14.7,14.37-25.663,4.024-11.618,6.573-22.654,6.573-22.654-1.866-4.517-6.81-7.242-10.969-6.573-2.279.365-7.621,2.123-8.832,3.713-1.853,2.434-7.094,24.676-11.2,35.2C1317.129,1152.115,1296.714,1165.782,1296.714,1165.782Z" transform="translate(-1174.509 -1060.886)"/><path class="w" d="M1305.64,1177.313c4.964-.717,10.123-2.036,14.16-4.409,5.484-3.226,10.576-14.7,14.37-25.663.061-7.912.061-14.451.061-14.451l-8.98,3.726c-.277.554-3.171,27.719-9.656,33.237A89.8,89.8,0,0,1,1305.64,1177.313Z" transform="translate(-1166.218 -1068.009)"/><rect class="x" width="4.314" height="90.223" transform="translate(24.109 177.67)"/><g class="y" transform="translate(18.606 266.927)"><path class="l" d="M1503.92,1439.382a7.662,7.662,0,1,1,7.662,7.662A7.659,7.659,0,0,1,1503.92,1439.382Z" transform="translate(-1503.92 -1431.72)"/><path class="z" d="M1516.621,1441.791a2.631,2.631,0,1,0-2.631,2.631A2.629,2.629,0,0,0,1516.621,1441.791Z" transform="translate(-1506.329 -1434.129)"/></g><g transform="translate(133.916 108.384)"><path class="l" d="M1321.915,1210.774a1.385,1.385,0,0,0,1.251-.8l4.639-9.947h15.378a1.38,1.38,0,0,0,0-2.759h-16.257a1.386,1.386,0,0,0-1.251.8l-5,10.745a1.379,1.379,0,0,0,.669,1.833A1.32,1.32,0,0,0,1321.915,1210.774Z" transform="translate(-1320.54 -1197.27)"/></g><g class="y" transform="translate(31.502 210.076)"><g transform="translate(1.657 3.401)"><g transform="translate(24.588)"><path class="aa" d="M1459.922,1417.781c.318-1.44-15.939-58.589-17.792-65.1l-.528.149c4.984,17.494,17.886,63.241,17.778,64.851Z" transform="translate(-1441.603 -1352.68)"/></g><g transform="translate(1.325 23.576)"><path class="aa" d="M1471.931,1387.548c-1.44-.318-58.589,15.939-65.1,17.792l.149.527c17.494-4.984,63.241-17.886,64.851-17.778Z" transform="translate(-1406.83 -1387.543)"/></g><g transform="translate(7.229 11.739)"><path class="aa" d="M1468.723,1370.04c-1.454.257-47.918,37.294-53.213,41.514l.345.433c14.221-11.34,51.455-40.885,52.983-41.406Z" transform="translate(-1415.51 -1370.04)"/></g><g transform="translate(0 28.264)"><path class="aa" d="M1406.08,1394.5c1.38-.514,60.232,7.682,66.933,8.615l-.074.548c-18.015-2.516-65.108-8.974-66.683-8.642Z" transform="translate(-1406.08 -1394.476)"/></g><g transform="translate(21.173 1.67)"><path class="aa" d="M1461,1355.15c-1.129.947-22.985,56.2-25.474,62.5l.514.2c6.681-16.913,24.263-61.077,25.332-62.288Z" transform="translate(-1435.53 -1355.15)"/></g><g transform="translate(7.161 12.449)"><path class="aa" d="M1414.922,1371.09c1.454.243,48.411,36.652,53.76,40.8l-.338.433c-14.37-11.151-52-40.2-53.524-40.7Z" transform="translate(-1414.82 -1371.09)"/></g></g><path class="z" d="M1456.533,1399.892a4.592,4.592,0,1,0-4.592,4.592A4.592,4.592,0,0,0,1456.533,1399.892Z" transform="translate(-1415.851 -1363.078)"/><path class="l" d="M1472.951,1383.741a36.091,36.091,0,1,0-36.091,36.09A36.13,36.13,0,0,0,1472.951,1383.741Zm-3.861,0a32.236,32.236,0,1,1-32.236-32.236A32.273,32.273,0,0,1,1469.09,1383.741Z" transform="translate(-1400.77 -1347.65)"/></g><path class="l" d="M1320.973,1200.386h11.814a2.092,2.092,0,0,0,2.083-2.083h0a2.092,2.092,0,0,0-2.083-2.083h-11.814a2.092,2.092,0,0,0-2.083,2.083h0A2.084,2.084,0,0,0,1320.973,1200.386Z" transform="translate(-1175.816 -1088.546)"/><path class="ab" d="M1504.608,1287.41s-6.681.69-7.506,1.609-3.854,5.937-3.949,6.871-.02,2.658.663,2.38,3.577-4.869,5.038-4.937,6.147-2.029,6.147-2.029Z" transform="translate(-1463.768 -1118.07)"/><path class="s" d="M1350.06,1298.337l62.166.642,27.969-87.423-57.507-.636Z" transform="translate(-1302.22 -1093.305)"/><path class="ab" d="M1461.244,1216.755s-1.231,32.141-4.227,35.34c-1.934,2.069-22.836,11.936-22.836,11.936l.21,3.942s27.191-3.848,31.2-8.7c7.912-9.576,8.433-35.671,8.818-38.444S1466.837,1212.488,1461.244,1216.755Z" transform="translate(-1393.334 -1094.69)"/><path class="ac" d="M1513.084,1413.433h20.808s.778-3.32-.588-5.579c-1.21-1.995-.744-3.138.149-4.788a8.122,8.122,0,0,1-3.5.663,7.352,7.352,0,0,1-3.1-1.089,73.17,73.17,0,0,1-5.931,6.228C1519.569,1409.842,1513.5,1409.5,1513.084,1413.433Z" transform="translate(-1506.38 -1155.377)"/><path class="ad" d="M1486.318,1299.148a17.182,17.182,0,0,1-17.217,14.228c-10.475-.129-25.778-.338-31.391-.548-11.888-.446-16.358.034-16.318.365.534,4.99.974,2.86-4.565,2.475,0,0-19.59-.554-13.728-13.951s61.517-17.582,66.433-16.994C1473.713,1285.218,1488.468,1286.232,1486.318,1299.148Z" transform="translate(-1383.683 -1117.183)"/><path class="ad" d="M1496.342,1315.736c.25,9.474,1.718,35.725-1.968,56.81-.933,5.349,6.735,5.511,6.8,5.518,1.461.169,4.017.3,4.869-.757,5.917-7.344,14.275-41.433,12-55.586-1.109-6.9-7.986-6.776-13.545-9.325C1501.062,1310.833,1496.24,1311.976,1496.342,1315.736Z" transform="translate(-1477.986 -1125.939)"/><rect class="l" width="4.314" height="72.005" transform="translate(116.567 175.659)"/><path class="l" d="M1417.655,1132.188a19.148,19.148,0,0,0-17.44,3.916,50.97,50.97,0,0,0-6.661,6.789c-5.43,6.735,3.8,14.235,2.38,16.541s-4.49,4.017-3.483,9.055,9.2,11.983,11.983,12.429c28.125,4.531,41.3-10.36,32.331-19.313s-4.416-20.929-11.821-26.109A23.593,23.593,0,0,0,1417.655,1132.188Z" transform="translate(-1329.823 -1067.597)"/><path class="i" d="M1409.55,1201.2a25.669,25.669,0,0,0,8.737,4.328c13.626,3.983,19.59-7.384,22.038-15.276a11.912,11.912,0,0,0-4.6-1.7c-.994-.176-2.036-.311-2.9-.406-1.481-1.278-3.516-6.269-3.591-13.849l-.663.135-11.056,2.353s.3,3.489.359,6.769c.041,2.57-.068,5.018-.588,5.586-.764.216-1.44.446-1.44.446-.162.243-.176.135-.122.054A68.654,68.654,0,0,0,1409.55,1201.2Z" transform="translate(-1342.58 -1081.445)"/><path class="ab" d="M1426.92,1176.843s.3,3.483.358,6.769c6.2-.264,9.4-5.971,10.7-9.122Z" transform="translate(-1351.977 -1081.51)"/><path class="i" d="M1429.763,1170.716s14.681.034,14.559-9.109,1.7-15.3-7.682-15.7-11.151,3.1-11.854,6.167S1425.943,1170.472,1429.763,1170.716Z" transform="translate(-1356.849 -1072.245)"/><path class="l" d="M1419.163,1146.072c2.232-2.779,3.956-2.2,4.923-1.393a10.26,10.26,0,0,1,13.22,1.92,17.479,17.479,0,0,0,5.856,10.238s-2.712,1.927-8.838.189a15.548,15.548,0,0,1-10.482-10.34c-.886.818-1.995,1.305-2.928,3.138a14.425,14.425,0,0,0-2.029,7.094C1418.886,1156.926,1415.816,1150.244,1419.163,1146.072Z" transform="translate(-1350.861 -1071.337)"/><rect class="l" width="52.178" height="4.226" transform="translate(0 257.735)"/><path class="t" d="M1476.859,1299.148a17.183,17.183,0,0,1-17.217,14.228c-10.475-.129-25.778-.338-31.391-.548-11.888-.446-16.358.034-16.318.365.534,4.99.974,2.86-4.564,2.475,0,0-19.59-.554-13.728-13.951s61.517-17.582,66.433-16.994C1464.254,1285.218,1479,1286.232,1476.859,1299.148Z" transform="translate(-1367.827 -1117.183)"/><path class="v" d="M1435.635,1241.49c-.994-6.823,1.434-32.655-3.969-40.729-3.9-5.836-9.312-8.142-15.993-8.25-2.15,1.217-10.34,5.822-13.552,5-.034-.007-.095-.027-.183-.054-1.508-.467-2.022-1.576-.7-2.428,0,0-5.471,1.183-7.168,3.111-1.636,1.853-1.562,5.829-2.076,10.522-.128,1.163-.149,2.333-.291,3.489-.642,5.275,1.055,5.843,6.864,21.058,2.84,7.438,1.508,13.376-.385,17.332a7.742,7.742,0,0,0,2.813,9.907c11.469,7.263,33.778,19.895,34.562,8.852C1436.372,1258.1,1437.015,1250.916,1435.635,1241.49Z" transform="translate(-1326.542 -1087.344)"/><path class="i" d="M1436.314,1215.448s-5.511,37.4-9.183,40.574c-2.374,2.049-25.967,5.843-25.967,5.843l-.385,3.638s33.656,2.468,35.583-.338c7.77-11.34,13.214-40.675,13.958-43.685S1442.982,1211.411,1436.314,1215.448Z" transform="translate(-1346.69 -1094.377)"/><path class="s" d="M1503.624,1413.023h20.808s.778-3.32-.588-5.579c-1.21-1.995-.744-3.138.149-4.788a8.122,8.122,0,0,1-3.5.663,7.354,7.354,0,0,1-3.1-1.089,73.131,73.131,0,0,1-5.931,6.228C1510.1,1409.432,1504.043,1409.087,1503.624,1413.023Z" transform="translate(-1490.522 -1155.245)"/><path class="t" d="M1486.892,1315.736c.25,9.474,1.718,35.725-1.968,56.81-.933,5.349,6.742,5.511,6.8,5.518,1.461.169,4.017.3,4.869-.757,5.917-7.344,14.275-41.433,12-55.586-1.109-6.9-7.986-6.776-13.545-9.325C1491.619,1310.833,1486.79,1311.976,1486.892,1315.736Z" transform="translate(-1462.146 -1125.939)"/><path class="o" d="M1442.05,1174.541s1.413-.467,5.288.074c0,0-.3,1.508-3.172,1.495A2.3,2.3,0,0,1,1442.05,1174.541Z" transform="translate(-1371.57 -1081.466)"/><path class="v" d="M1396.613,1221.8s9.974,8.649,21.572,5.694c0,0,4.179-27.908-10.34-28.294C1407.845,1199.193,1395.815,1203.961,1396.613,1221.8Z" transform="translate(-1312.223 -1089.51)"/><rect class="l" width="69.747" height="5.491" transform="translate(46.819 199.972)"/><rect class="l" width="5.761" height="68.257" transform="translate(81.302 200.038) rotate(30.001)"/><path class="aa" d="M1451.487,1330.618c-1.271,0-6.113-4.565-13.714-4.321s-50-.007-50-.007-5.538-.582-6.052,4.328Z" transform="translate(-1334.922 -1130.651)"/><rect class="l" width="4.314" height="90.223" transform="translate(48.536 177.67)"/><path class="i" d="M1485.8,1284.67s-7.459.426-8.291,1.346-3.854,5.937-3.949,6.87-.02,2.658.663,2.38,3.543-5.234,5.011-5.3a42.306,42.306,0,0,0,6.174-1.657Z" transform="translate(-1431.323 -1117.183)"/><path class="l" d="M1452.694,1299.181H1371.33a9.045,9.045,0,0,1,9.041-9.041H1447.3a5.391,5.391,0,0,1,5.39,5.39Z" transform="translate(-1329.103 -1118.954)"/><g transform="translate(82.632 210.076)"><g transform="translate(1.657 3.401)"><g transform="translate(24.594)"><path class="aa" d="M1384.3,1417.781c.318-1.44-15.939-58.589-17.792-65.1l-.527.149c4.984,17.494,17.886,63.241,17.778,64.851Z" transform="translate(-1365.983 -1352.68)"/></g><g transform="translate(1.332 23.576)"><path class="aa" d="M1396.311,1387.548c-1.44-.318-58.589,15.939-65.1,17.792l.149.527c17.494-4.984,63.241-17.886,64.851-17.778Z" transform="translate(-1331.21 -1387.543)"/></g><g transform="translate(7.236 11.739)"><path class="aa" d="M1393.1,1370.04c-1.454.257-47.918,37.294-53.213,41.514l.345.433c14.221-11.34,51.454-40.885,52.983-41.406Z" transform="translate(-1339.89 -1370.04)"/></g><g transform="translate(0 28.264)"><path class="aa" d="M1330.46,1394.5c1.379-.514,60.232,7.682,66.94,8.615l-.074.548c-18.015-2.516-65.108-8.974-66.683-8.642Z" transform="translate(-1330.46 -1394.476)"/></g><g transform="translate(21.173 1.67)"><path class="aa" d="M1385.394,1355.15c-1.129.947-22.985,56.2-25.474,62.5l.514.2c6.681-16.913,24.263-61.077,25.332-62.288Z" transform="translate(-1359.92 -1355.15)"/></g><g transform="translate(7.168 12.449)"><path class="aa" d="M1339.3,1371.09c1.454.243,48.411,36.652,53.76,40.8l-.338.433c-14.37-11.151-52-40.2-53.524-40.7Z" transform="translate(-1339.2 -1371.09)"/></g></g><path class="z" d="M1380.923,1399.892a4.592,4.592,0,1,0-4.592,4.592A4.592,4.592,0,0,0,1380.923,1399.892Z" transform="translate(-1340.241 -1363.078)"/><path class="l" d="M1397.341,1383.741a36.091,36.091,0,1,0-36.09,36.09A36.13,36.13,0,0,0,1397.341,1383.741Zm-3.854,0a32.236,32.236,0,1,1-32.236-32.236A32.273,32.273,0,0,1,1393.486,1383.741Z" transform="translate(-1325.16 -1347.65)"/></g><g transform="translate(43.032 266.927)"><path class="l" d="M1467.8,1439.382a7.662,7.662,0,1,1,7.662,7.662A7.659,7.659,0,0,1,1467.8,1439.382Z" transform="translate(-1467.8 -1431.72)"/><path class="z" d="M1480.5,1441.791a2.631,2.631,0,1,0-2.631,2.631A2.629,2.629,0,0,0,1480.5,1441.791Z" transform="translate(-1470.209 -1434.129)"/></g><path class="ae" d="M1295.273,1098.535c1.035-1.995-22.532-9.163-22.9,10.5,0,0-44.144-1.089-23.066-25.69,7.3-8.521,6.546-15.56,6.33-22.113s4.544-25.609,20.882-23.7a12.179,12.179,0,0,1,9.616,1.028C1298.276,1044.856,1325.48,1105.784,1295.273,1098.535Z" transform="translate(-1099.061 -1036.993)"/><path class="l" d="M1231.623,1420.323s4.943,4.511,3.983,7.723-5.43,5.349-6.032,9.264-3.016,6.059-5.187,6.059h-10.353s-1.6-2.759,2.265-3.591,5.315-5.437,5.072-9.718a74.8,74.8,0,0,1,.365-9.981l8.2-1.9Z" transform="translate(-1005.548 -1160.409)"/><path class="l" d="M1309.111,1424.18s1.772,19.354-.4,20.422h-28.03s.243-3.5,4.707-4.206,12.307-3.327,13.633-9.15S1309.111,1424.18,1309.111,1424.18Z" transform="translate(-1124.902 -1162.351)"/><path class="i" d="M1298.971,1177.005c-5.721-12.828-9.217-16.507-8.548-20.49.5-2.962-1.515-55.241-1.515-55.241-.676-.21-2.036-.4-2.779-.561a6.971,6.971,0,0,1-5.092-4.429,35.646,35.646,0,0,1-1.731-11.793l-.73.142-12.321,2.441s.277,3.875.291,7.526v.088a7.082,7.082,0,0,1-5.112,6.85c-1.555.446-2.908.832-2.908.832a113.027,113.027,0,0,0-5.39,26.177c-.866,13.268,8.223,19.029-.068,45.537C1244.588,1201.167,1302.129,1184.092,1298.971,1177.005Z" transform="translate(-1094.955 -1052.371)"/><path class="af" d="M1282.57,1087.141s.277,3.875.291,7.526c6.891-.2,10.536-6.485,12.03-9.968Z" transform="translate(-1111.277 -1052.439)"/><path class="i" d="M1285.232,1080.245s16.311.271,16.318-9.886,2.123-16.967-8.291-17.568-12.443,3.273-13.268,6.661S1280.992,1079.914,1285.232,1080.245Z" transform="translate(-1116.245 -1042.088)"/><path class="ae" d="M1272.03,1051.461s4.463,11.915,11.32,13.68,9.826-.074,9.826-.074a19.414,19.414,0,0,1-6.35-11.462S1275.4,1045.788,1272.03,1051.461Z" transform="translate(-1102.435 -1041.009)"/><path class="ae" d="M1309.924,1052.95s-3.314,1.237-4.673,3.652a16.421,16.421,0,0,0-2.2,9.325s-3.361-8.1.419-12.679C1307.476,1048.385,1309.924,1052.95,1309.924,1052.95Z" transform="translate(-1139.227 -1041.53)"/><path class="ag" d="M1304.84,1083.828a4.087,4.087,0,0,1-3.374,1.373,3.01,3.01,0,0,1-2.516-1.657A11,11,0,0,1,1304.84,1083.828Z" transform="translate(-1132.303 -1051.973)"/><path class="v" d="M1252.294,1162.181l16.182,4.835,5.133-1.258,14.593-3.577s1.887-.629,3.557-4.49a47.723,47.723,0,0,0,1.481-5.586c.663-2.921,1.346-6.343,1.731-8.757.568-3.557,1.7-7.986,2.685-12.76h0a88.359,88.359,0,0,0,1.664-10.82,9.183,9.183,0,0,0-8.142-9.853l-5.417-.6c-17.19,14.025-30.39,1.1-30.39,1.1a88.79,88.79,0,0,0-7.479,19.618C1244.923,1141.61,1252.294,1162.181,1252.294,1162.181Z" transform="translate(-1091.807 -1060.41)"/><path class="ad" d="M1284.089,1192.11s-8.013,24.939-8.527,33.433,15.317,120.626,15.952,124.535c.6,3.686,5.18,6.039,5.18,6.039a6.91,6.91,0,0,0,5.112.392c4.172-1.177,5.491-2.59,5.491-2.59s6.235-79.971,2.38-108.535a451.637,451.637,0,0,1-3.9-53.274Z" transform="translate(-1122.575 -1087.215)"/><path class="t" d="M1253.594,1191.01s12.219,16.4,13.362,27.482,1.785,50.021,4.213,60.834,11.347,31.607,11.347,65.311a6.714,6.714,0,0,1-3.787,2.962,30.031,30.031,0,0,1-3.334.92,5.252,5.252,0,0,1-5.863-2.779c-6.032-12.138-25.237-51.3-26.224-59.427-.7-5.755-6.762-43.82-19.99-66.156-3.178-5.363,1.948-26.691,1.948-26.691Z" transform="translate(-1058.133 -1086.859)"/><path class="o" d="M1305.172,1084.135s-.284,1.2-3.259,1.014c0,0-2.5-.156-2.421-1.468A8.02,8.02,0,0,1,1305.172,1084.135Z" transform="translate(-1133 -1052.009)"/><path class="l" d="M1262.944,1186.41s3.219,2.543,9.609,2.671c7.635.156,26.542-1.948,26.542-1.948a15.671,15.671,0,0,1,.8,4.828s-23.1,5.829-36.483.852A8.457,8.457,0,0,1,1262.944,1186.41Z" transform="translate(-1102.708 -1085.369)"/><g transform="translate(164.53 102.407)"><path class="o" d="M1307.455,1192.372a3.509,3.509,0,1,0-3.483,3.942A3.74,3.74,0,0,0,1307.455,1192.372Zm-1.156,0a2.364,2.364,0,1,1-2.326-2.786A2.59,2.59,0,0,1,1306.3,1192.372Z" transform="translate(-1300.49 -1188.43)"/></g><path class="w" d="M1255.517,1169.539a56.3,56.3,0,0,0,13.741-9.345c.663-2.921,1.346-6.343,1.731-8.757.568-3.557,2.529-12.361,3.516-17.136l-25.988,37.429C1248.518,1171.736,1247.348,1173.718,1255.517,1169.539Z" transform="translate(-1067.826 -1068.498)"/><path class="w" d="M1305.491,1149.53s-11.557,18.346-14.9,21.646,13.667-2.624,13.667-2.624Z" transform="translate(-1127.003 -1073.429)"/><path class="i" d="M1342.053,1193.057c-.385.291-7.242-.575-9.447.811s-4.328,5.254-3.334,6.634,5.68-2.759,7.06-2.691a26.875,26.875,0,0,0,5.335-1.156Z" transform="translate(-1189.85 -1087.52)"/><path class="v" d="M1304.072,1132.124s-12.186,32.446-23.486,39.086-31.377,5.038-31.377,5.038a6.479,6.479,0,0,1-.744-2.786,4.776,4.776,0,0,1,.744-2.252s20.416-13.66,21.315-15.973c4.111-10.529,10.069-24,12.551-25.792S1301.279,1125.368,1304.072,1132.124Z" transform="translate(-1097.392 -1066.321)"/></g><g transform="translate(1203.749 853.087)"><path class="v" d="M2005.88,1093.66l27.766.128-14.018,49.872-26.7-5.538Z" transform="translate(-1924.531 -1023.203)"/><path class="i" d="M2002.97,1134.6a2.928,2.928,0,0,1,.8-1.373,21.787,21.787,0,0,0,1.609-3.963c.162-1.846,1.413-1.2,1.609.419.041.352-.169,1.217-.176,1.589,1.542.622,3.1-.656,3.5-2.333.189-.8.473-1.6.6-2.123.176-.737,1.961.494,2.008,1.772.081,2.056.047,7.614-.467,8.507-.872,1.5-5.863,3.03-8.426,3.361l-3.043.237-1.772-4.916Z" transform="translate(-1908.083 -1033.865)"/><path class="ae" d="M2105.27,1433.051s.8,12.984,3.32,13.173c.332.027,12.74.027,12.74.027l15.837-.095s-.1-3.814-4.734-4.625-12.375-4.057-15.181-10.177C2114.3,1424.915,2105.27,1433.051,2105.27,1433.051Z" transform="translate(-2104.021 -1131.734)"/><path class="s" d="M2074.341,1359.637a33.047,33.047,0,0,0,8.574,1.609,31.42,31.42,0,0,0,8-1.143s.906-8.764,5.9-28.077c2.617-10.123,6.35-23.141,11.665-39.309,14.688-44.7,19.158-70.849,19.563-73.324.02-.128.027-.2.027-.2l-.047-.02-45.166-19.827s5.579,61.6-1.542,85.253a98.51,98.51,0,0,0-2.583,11.327C2074.232,1321.606,2074.341,1359.637,2074.341,1359.637Z" transform="translate(-2074.005 -1057.422)"/><path class="l" d="M2074.38,1295.923l18.076,36.1c2.617-10.123,6.35-23.141,11.665-39.309,14.688-44.7,19.158-70.849,19.563-73.324-.007-.074-.007-.142-.02-.216L2078.5,1199.35s5.579,61.6-1.542,85.253A99.514,99.514,0,0,0,2074.38,1295.923Z" transform="translate(-2069.649 -1057.422)"/><path class="ae" d="M2053.11,1433.051s.8,12.984,3.32,13.173c.331.027,12.74.027,12.74.027l15.837-.095s-.1-3.814-4.734-4.625-12.375-4.057-15.181-10.177C2062.145,1424.915,2053.11,1433.051,2053.11,1433.051Z" transform="translate(-2016.589 -1131.734)"/><path class="s" d="M2110.411,1201.49a642.393,642.393,0,0,1-6.323,88.938c-6.9,49.02-4.564,69.821-4.564,69.821a47.159,47.159,0,0,1-6.661,1.69,30.192,30.192,0,0,1-9.88-1.143s-9.886-49.034-7.053-73.568-13.538-84.184-13.538-84.184Z" transform="translate(-2048.281 -1058.115)"/><path class="i" d="M2080.66,1052.154l7.445,7.459,12.957.284c.041-1.042.088-5.383.128-9.325,0-.23,0-.467.007-.69.027-3.347.054-6.228.054-6.228l-10.569-7.574-3.943-2.82c0,.068-.406,3.638-.473,4.159A30.388,30.388,0,0,1,2080.66,1052.154Z" transform="translate(-2051.463 -1003.647)"/><path class="p" d="M2123.255,1156.882c-.183,21.071-1.582,70.369-2.617,71.37-10.975,10.6-59.252-2.9-61.808-14.573s9.724-149.65,28.469-155.162c3.888-1.143,24.689,5.579,24.689,5.579a132.3,132.3,0,0,1,5.4,19.4c.791,4.03,3.381,32.77,4.889,51.975.4,5.119.724,9.562.92,12.673C2123.275,1149.43,2123.289,1152.568,2123.255,1156.882Z" transform="translate(-2058.494 -1011.783)"/><path class="ah" d="M2080.822,1038.978c1.65,4.869,10.4,10.6,14.086,12.815,0-.23,0-.467.007-.69.027-3.347.054-6.228.054-6.228L2084.4,1037.3C2081.83,1036.726,2080.139,1036.976,2080.822,1038.978Z" transform="translate(-2045.187 -1004.868)"/><path class="i" d="M2088.685,1033s-19.983,1.934-21-10.529-4.274-20.6,8.446-22.37,15.581,2.793,16.933,6.871S2093.851,1032.178,2088.685,1033Z" transform="translate(-2034.365 -992.787)"/><path class="ae" d="M2096.926,1002.372s-4.051,13.41-6.749,12.226-5.173-2.157-5.62,2.049,2.475,9.778-6.384,8.69-16.683-26.157-13.4-29.91C2074.231,984.6,2110.024,989.49,2096.926,1002.372Z" transform="translate(-2038.724 -989.47)"/><path class="q" d="M2094.77,1056.2c-.25-.1-14.269-6.39-15.9-5.849s-3.686,5.552-3.686,5.552l24.689,5.579C2099.862,1061.485,2097.921,1057.536,2094.77,1056.2Z" transform="translate(-2046.375 -1009.171)"/><path class="q" d="M2100.636,1168.762c-45.8-31.019-42.068-73.682-42.068-73.682,17.873,10.083,35.583,33.947,41.095,52.266.4,5.119.724,9.562.92,12.673C2100.656,1161.31,2100.67,1164.448,2100.636,1168.762Z" transform="translate(-2035.875 -1023.663)"/><path class="p" d="M2031.443,1078.245s12.916,44.875,18.177,44.875c3.489,0,34.015-5.051,34.015-5.051l2.813,6.614s-34.014,22.41-46.376,17.9c-19.583-7.148-31.391-41.839-27.09-53.652S2023.187,1073.14,2031.443,1078.245Z" transform="translate(-1990.297 -1017.505)"/></g><g transform="translate(896.638 853.087)"><g transform="translate(69.563)"><path class="i" d="M2508.693,1123.819s-3.1-3.765-4.773-4.3-4.9-3.031-5.321-2,2.17,2.617,2.036,3.8-8.244,3.071-8.2,4.319a4.791,4.791,0,0,0,5,3.912c3.091-.347,10.934-2.21,12.55-1.4S2508.693,1123.819,2508.693,1123.819Z" transform="translate(-2492.438 -1029.254)"/><path class="v" d="M2447.144,1087.487a66.477,66.477,0,0,1-15.447,14.839,85.344,85.344,0,0,1-36.494,13.991c-4.553-1.455-18.531-2.977-26.788-4.312h0c-3.6-.581-6.115-1.122-6.281-1.609l.207-7.2s30.32-1.6,35.34-3.932a114.03,114.03,0,0,0,19.472-22.6c3.852-5.841,8.157-10.16,15.26-12.69C2442.679,1060.324,2461.363,1068.395,2447.144,1087.487Z" transform="translate(-2347.267 -1011.251)"/><path class="w" d="M2455.491,1112.6l-1.548,4.526a85.345,85.345,0,0,1-36.495,13.992c-3.658,0-18.531-2.977-26.788-4.312.327.027,22.49,1.762,27.389,1.255,4.933-.507,27.91-20.42,27.91-20.42Z" transform="translate(-2369.512 -1026.051)"/><path class="l" d="M2368.738,1447.488h33.5c2.4-1.629-.647-17.543-.647-17.543s-9.145-3.471-10.728,3.585-11.648,9.292-16.976,10.153C2370.253,1444.277,2369.1,1446.279,2368.738,1447.488Z" transform="translate(-2302.551 -1132.921)"/><path class="l" d="M2294.288,1447.488h33.51c2.4-1.629-.648-17.543-.648-17.543s-9.145-3.471-10.727,3.585-11.648,9.292-16.975,10.153C2295.8,1444.277,2294.655,1446.279,2294.288,1447.488Z" transform="translate(-2178.41 -1132.921)"/><path class="s" d="M2343.76,1212.1s1.509,18.791,3.278,41.374c2.4,30.68,8.9,106.753,8.9,106.753s4.252,3.631,13.678,1.642a297.522,297.522,0,0,0,10.42-56.2c.04-.494.073-.988.114-1.482,2.229-30.493,5.7-94.7,5.7-94.7Z" transform="translate(-2268.562 -1059.909)"/><path class="l" d="M2343.771,1203.67s2.023,25.286,3.792,47.869l32.99,52.2c.04-.494.073-.988.114-1.482,2.23-30.493,5.7-94.7,5.7-94.7Z" transform="translate(-2269.086 -1057.977)"/><path class="s" d="M2294.152,1197.944s23.925,59.558,31.574,82.141c5.447,16.081,20.814,72.5,20.814,72.5s6.682,2.036,12.3-1.9c0,0,5.714-57.642-5.834-73.89-6.128-8.625-1.522-89.637-26.361-90.325S2294.152,1197.944,2294.152,1197.944Z" transform="translate(-2209.848 -1052.251)"/><path class="i" d="M2348.368,1060.485a14.951,14.951,0,0,0,10.307,1.389,21.261,21.261,0,0,0,6.982-2.951,20.493,20.493,0,0,0,2.817-2.123s-.12-.18-.334-.527c-1.082-1.842-4.353-8.484-2.9-19.145.02-.14-1.035.06-2.63.434-4.746,1.122-14.292,3.832-14.713,3.952h-.02s-.114,2.243-.507,6.262c-.033.354-.067.728-.107,1.108-.047.474-.1.974-.153,1.482C2346.672,1054.55,2348.368,1060.485,2348.368,1060.485Z" transform="translate(-2253.377 -1002.594)"/><path class="n" d="M2352.19,1048.023c7.09,1.622,17.663-8.838,17.663-8.838a11.449,11.449,0,0,0-2.423-1.375c-4.746,1.121-14.292,3.832-14.713,3.952h-.02S2352.583,1044,2352.19,1048.023Z" transform="translate(-2258.193 -1002.835)"/><path class="i" d="M2345.54,1028.386a36.088,36.088,0,0,0,6.629,1.549c5.434.734,12.577.3,14.826-6.275,3.778-11.068,8.611-17.7-2.517-22.222-5.955-2.417-9.766-2.55-12.356-1.622a8.956,8.956,0,0,0-4.579,3.965C2345.38,1007.164,2341.034,1026.443,2345.54,1028.386Z" transform="translate(-2253.947 -990.027)"/><path class="m" d="M2329.974,1000.038c6.442,4.633,15.353.08,18.124,1.308s3.264,5.868,3.311,7.343.247,2.724,4.005,1.836a1.82,1.82,0,0,1,1.362.08c1.562.928-.434,5.407-1.035,6.375,0,0-.861,3.211,1.055,4.773.233.187,4,1.836,13.084-12.069a12.911,12.911,0,0,0,.587-11.829c-2.2-4.733-11.408-9.305-19.212-11.735-2.924-.908-5.093-.875-6.789-.254-2.83,1.035-4.339,3.712-5.834,6.4C2336.115,996.794,2329.974,1000.038,2329.974,1000.038Z" transform="translate(-2245.136 -985.417)"/><path class="v" d="M2320.524,1145.354c.521,6.829,1.962,11.715,5.12,11.715a106.308,106.308,0,0,0,30.861,5.08,76.951,76.951,0,0,0,11.8-1.261c3.939-.668,7.056-1.342,7.056-1.342,3.378-.781,7.1-2.864,6.609-6.716-.281-2.183-.481-5.02-.614-8.324-.367-8.925-.307-21.214-.354-32.983-.033-7.229-.1-14.259-.347-20.18,0,0,3.318-23.284-.367-27.1-4.312-4.466-16.982-5.841-17.777-5.674-.24-.047-.474-.107-.721-.147,0,0-11.021,6.008-19.031,1.509,0,0-11.689,2.663-15.053,6.221-1.161,1.222-5.794,8.738-5.921,17-.174,11.508.274,24.579.274,24.586-.12,1.869-.32,4.279-.541,7.029-.234,2.931-.494,6.242-.714,9.693-.107,1.742-.214,3.518-.293,5.294A133.321,133.321,0,0,0,2320.524,1145.354Z" transform="translate(-2249.064 -1009.687)"/><path class="w" d="M2370.23,1058.66s-11.936,12.316-20.474,9.793c0,0-1.135-1.662,2.7-2.2S2360.45,1065.936,2370.23,1058.66Z" transform="translate(-2256.841 -1009.767)"/><path class="o" d="M2372.794,1032.17s-.234,1.435,3.1,2.577c0,0,2.8.961,3.3-.507A9.48,9.48,0,0,0,2372.794,1032.17Z" transform="translate(-2281.287 -1000.96)"/><path class="w" d="M2321.3,1123.49s-.027,33.3,11.328,42.649c-.367-8.925-.307-21.214-.354-32.983Z" transform="translate(-2200.348 -1031.321)"/><path class="i" d="M2282.172,1216.88s5.781,9.072,6.1,12.543c.22,2.363-.307,11.669-1.489,11.7-1.662.047-3.324-5.748-3.972-7.25s-1.4-2.684-2.042-2.684,1.4,5.794,0,5.153-3.758-6.008-3.972-7.3,1.262-5.414.541-7.043S2282.172,1216.88,2282.172,1216.88Z" transform="translate(-2126.321 -1062.369)"/><path class="v" d="M2294.855,1065.24s7.81,3.691,14.359,31c4.94,20.587,14.385,73.162,14.385,73.162l-7.99,3.284s-29.265-67.195-33.45-76.64S2294.855,1065.24,2294.855,1065.24Z" transform="translate(-2164.745 -1011.955)"/></g><g transform="translate(0 20.182)"><g transform="translate(0)"><path class="i" d="M2543.387,1123.49s-7.724,37.769-10.667,43.944-14.7,28.391-14.7,28.391l3.351.554s21.275-20.12,22.016-22.476,14.619-31.768,14.619-31.768Z" transform="translate(-2487.481 -1051.503)"/><path class="l" d="M2470.589,1031.974s14.979-18,22.91-6.482c0,0,5.915,2.457,8.057,12.523,2.183,10.273-4.653,18.084-8.184,16.155-2.263-1.235-3.979,2.73-3.979,2.73Z" transform="translate(-2399.791 -1017.642)"/><path class="l" d="M2460.4,1021.678s2.016-8.057,13.845-5.541c0,0-5.667-.714-7.216,1.469,0,0,4.492-2.056,7.3-.334s3.271,7.51,2.85,9.272-3.524,7.009-5.581,7.009-4.492-1.8-4.492-1.8Z" transform="translate(-2368.325 -1015.651)"/><path class="i" d="M2507.127,1166.171c-5.881-13.2-8.7-16.929-8.8-21.081-.08-3.284,1.542-6.829,4.686-15.514a32.3,32.3,0,0,0,1.569-6.282c2.49-16.742-7.2-34.845-13.217-36.081-1.676-.441-4.513-6.489-4.479-16.234l-.754.147-12.67,2.51s.287,3.985.294,7.743c.007,3.131-.18,6.1-.888,6.475-.915.08-1.448.14-1.448.14s-10.567,14.673-11.455,28.324,8.464,19.579-.073,46.855C2451.181,1191.024,2510.378,1173.461,2507.127,1166.171Z" transform="translate(-2397.345 -1034.046)"/><path class="af" d="M2490.66,1073.71s.287,3.985.293,7.744c7.089-.2,10.841-6.669,12.376-10.253Z" transform="translate(-2414.541 -1034.119)"/><path class="l" d="M2503.606,1056.17s3.718-5.874,4.606-10.894c.634-3.585-1.188-16.875-14.546-14.96a18.113,18.113,0,0,0-7.523,2.844c-2.9,1.956-7.083,6.188-2.4,17.783l1.215,3.918Z" transform="translate(-2413.51 -1020.464)"/><path class="i" d="M2493.345,1066.188s16.782.28,16.789-10.173,2.183-17.456-8.524-18.077-12.8,3.364-13.651,6.856S2488.979,1065.848,2493.345,1066.188Z" transform="translate(-2419.596 -1023.039)"/><path class="l" d="M2479.68,1036.532s4.593,12.263,11.642,14.072,10.107-.073,10.107-.073a19.974,19.974,0,0,1-6.529-11.8S2483.145,1030.7,2479.68,1036.532Z" transform="translate(-2405.311 -1021.887)"/><path class="l" d="M2519.044,1038.085s-3.431,2.737-4.266,5.4-1.215,8.144-2.81,7.957c0,0-3.458-8.338.427-13.051C2516.513,1033.392,2519.044,1038.085,2519.044,1038.085Z" transform="translate(-2443.532 -1022.445)"/><path class="ae" d="M2509.819,1341.938a165.558,165.558,0,0,1-10.574,29.666l-5.534-.38a156.07,156.07,0,0,0,2.557-30.353c-.107-12.2-1.615-26.6-6.435-40.366-16.555-47.282-13.878-81.694-13.878-81.694l31.134,3.645,1.449.167c.127,14.3.5,33.711.821,48.891.287,13.651.534,23.878.534,23.878C2515.88,1308.287,2513.711,1326.484,2509.819,1341.938Z" transform="translate(-2414.896 -1083.193)"/><path class="i" d="M2464.957,1188.112l-5.04,1.509s-16.615-27.569-18.13-34.745c-.494-2.336-1.7-7.009-3.11-12.243-2.917-10.841-6.683-24.111-6.683-24.111l-1.241-5.374-4.232-18.317s8.1.828,12.837,2.81a5.907,5.907,0,0,1,3.184,2.35c3.478,7.65,6.956,26.962,9.4,40.74,1.362,7.677,2.4,13.638,2.944,14.9C2456.4,1159.161,2461.012,1178.546,2464.957,1188.112Z" transform="translate(-2333.353 -1041.975)"/><path class="ai" d="M2481.838,1320.946c1.522,10.22,5.314,38.477,3.838,43.2l-6.041-1.015s-11.1-25.527-13.618-32.536c-5.187-14.406-11.188-23.177-13.237-29.939-6.388-21.141-14.332-90.111-14.332-90.111l31.568-1.569c3.177,5.34,4.559,14.092,4.886,24.045.828,25.12-2.517,54.171-3.4,58.911C2474.075,1296.181,2478.981,1301.735,2481.838,1320.946Z" transform="translate(-2362.37 -1079.925)"/><path class="l" d="M2493.28,1038.037s3.271,12.844,12.169,16.956c0,0-8.9-7.89-9.652-16.368S2493.28,1038.037,2493.28,1038.037Z" transform="translate(-2418.41 -1021.983)"/><path class="o" d="M2501.485,1183.859a7.517,7.517,0,0,1-.194,2.523c-.674,2.116-2.977,3.078-8.558,2.5-3.411-.354-4.926-6.068-5.607-10.941q-3.074,10.454-8.618,11.709c-5.407,1.2-32.676,4.519-34.458-8.444-1.963-14.259,3.918-39.505,4.239-53.116a67.4,67.4,0,0,1-.988-12.616c.227-9.7,3.071-15.133,5.26-17.323.621-.474,1.241-.774,3.725-1.2,1.275-.214,3.031-.467,5.527-.794,0,0,1.021-.113.995-.08-.46.828-6.635,10.18-6.155,12.583.507,2.517,22.409.254,23.918-1.135s3.9-11.989,3.9-11.989,7.757.848,11.549,3.6a.354.354,0,0,1-.04.047,3.268,3.268,0,0,1,1,1.048c4.045,7.71,8.091,27.156,10.934,41.034a20.16,20.16,0,0,1-14.779,2.163C2495.584,1159.42,2501.118,1176.576,2501.485,1183.859Z" transform="translate(-2387.744 -1042.207)"/><g transform="translate(62.673 280.246)"><path class="l" d="M2513.088,1448.277h-3.531c-1.182-.187-2.056-.527-3.271-.688a3.269,3.269,0,0,0-2.857.688l-.033.033h-15.006c-.38-.541-.013-1.789.341-2.7a2.127,2.127,0,0,1,1.408-1.282c1.589-.461,4.726-.868,7.6-3.471,1.615-1.462,7.8-5.367,7.8-5.367l.033-.007c.133,0,.781.2,3.6,2.577,1.455,1.228,3.932-1.729,3.932-1.729a3.555,3.555,0,0,1,.814,1.1,3.727,3.727,0,0,1,.32,2.3c-.227,1.355.5,3.865,1.075,5.561.347,1.028.648,1.762.648,1.762S2516.132,1447.9,2513.088,1448.277Z" transform="translate(-2488.228 -1435.473)"/><path class="aj" d="M2499.667,1437.419a11.163,11.163,0,0,1-3.8,1.916c-1.6.207-4.573-3.858-4.573-3.858l.033-.007c.134,0,.781.2,3.6,2.577,1.455,1.228,3.932-1.729,3.932-1.729A3.563,3.563,0,0,1,2499.667,1437.419Z" transform="translate(-2473.973 -1435.47)"/><path class="aj" d="M2513.088,1453.157h-3.531c-1.182-.187-2.056-.527-3.271-.687a3.269,3.269,0,0,0-2.857.688l-.033.033h-15.006c-.38-.541-.013-1.789.341-2.7.454-.407.587,1.762.834,2.1s12.243.127,12.937-.38a7.28,7.28,0,0,1,5.667-.694c2.517.6,6.235-.941,7.149-1.355.347,1.028.648,1.762.648,1.762S2516.132,1452.777,2513.088,1453.157Z" transform="translate(-2488.228 -1440.354)"/></g><g transform="translate(98.914 280.246)"><path class="l" d="M2458.814,1448.277h-3.531c-1.181-.187-2.056-.527-3.271-.688a3.3,3.3,0,0,0-2.864.688l-.033.033h-15.006c-.381-.541-.013-1.789.34-2.7a2.127,2.127,0,0,1,1.408-1.282c1.589-.461,4.726-.868,7.6-3.471,1.615-1.462,7.8-5.367,7.8-5.367l.033-.007c.134,0,.781.2,3.6,2.577,1.455,1.228,3.932-1.729,3.932-1.729a3.555,3.555,0,0,1,.814,1.1,3.725,3.725,0,0,1,.32,2.3c-.227,1.355.5,3.865,1.075,5.561.347,1.028.641,1.762.641,1.762S2461.858,1447.9,2458.814,1448.277Z" transform="translate(-2433.947 -1435.473)"/><path class="aj" d="M2445.377,1437.419a11.163,11.163,0,0,1-3.8,1.916c-1.6.207-4.573-3.858-4.573-3.858l.033-.007c.133,0,.781.2,3.6,2.577,1.455,1.228,3.932-1.729,3.932-1.729A3.448,3.448,0,0,1,2445.377,1437.419Z" transform="translate(-2419.683 -1435.47)"/><path class="aj" d="M2458.8,1453.157h-3.531c-1.181-.187-2.056-.527-3.271-.687a3.3,3.3,0,0,0-2.864.688l-.033.033H2434.1c-.381-.541-.013-1.789.34-2.7.454-.407.587,1.762.835,2.1s12.242.127,12.937-.38a7.28,7.28,0,0,1,5.667-.694c2.523.6,6.235-.941,7.156-1.355.347,1.028.641,1.762.641,1.762S2461.848,1452.777,2458.8,1453.157Z" transform="translate(-2433.937 -1440.354)"/></g><path class="o" d="M2538.293,1099.12s-9.853,5.047-13.338,26.3c0,0,3.425,4.7,8.258,6.081a9.533,9.533,0,0,0,2.149.367C2541.29,1132.183,2538.293,1099.12,2538.293,1099.12Z" transform="translate(-2473.155 -1043.401)"/><path class="o" d="M2514.129,1070.607s-.287,1.228-3.351,1.041c0,0-2.57-.16-2.5-1.515A8.281,8.281,0,0,1,2514.129,1070.607Z" transform="translate(-2437.103 -1033.659)"/><path class="i" d="M2577.76,1226.01s-5.941,2.917-6.989,4.993c-.648,1.288.594,5.961,1.842,6.529s1.249-3.318,2.336-3.712,4.312-2.116,4.719-3.351C2580.857,1226.844,2577.76,1226.01,2577.76,1226.01Z" transform="translate(-2544.511 -1085.587)"/><g transform="translate(0 146.178)"><g transform="translate(0 1.407)"><rect class="ae" width="1.762" height="147.536" transform="translate(1.727 144.933) rotate(-168.516)"/></g><path class="ae" d="M2576.788,1250.7l.614.127a1.55,1.55,0,0,0,1.829-1.208l2.67-13a1.55,1.55,0,0,0-1.2-1.829l-.614-.127a1.547,1.547,0,0,0-1.829,1.2l-2.67,13A1.537,1.537,0,0,0,2576.788,1250.7Z" transform="translate(-2549.813 -1234.631)"/></g><path class="i" d="M2574.694,1232.911s-2.724,3.658-2.95,4.005-.607-.634-.427-1.308,1.095-3.3,1.095-3.3Z" transform="translate(-2539.716 -1087.681)"/></g><g transform="translate(125.343 143.828)"><path class="i" d="M2415.441,1231.11s7.3,4.486,8.351,6.422,3.525,9.079,3.525,9.079-1.762.267-3.525-2.817-7.577-2.817-9.519-4.493-4.192-6.582-4.192-6.582Z" transform="translate(-2410.08 -1231.11)"/><path class="i" d="M2424.41,1235.79s1.148,5.414,2.557,7,3.351,4.232,4.139,3.525-.881-6.609-.881-6.609Z" transform="translate(-2423.649 -1232.666)"/><path class="i" d="M2407.43,1241.66c.174.267,6.255,6.729,6.255,6.729s-2.2,1-2.817,0S2407.43,1241.66,2407.43,1241.66Z" transform="translate(-2394.68 -1234.617)"/></g></g><path class="ae" d="M2502.252,1059.292h2.41a1.986,1.986,0,0,0,1.989-1.989v-.741a1,1,0,0,0-1-1h-4.706a.655.655,0,0,0-.654.654v1.108A1.959,1.959,0,0,0,2502.252,1059.292Z" transform="translate(-2424.291 -1008.737)"/><path class="ae" d="M2519.1,1059.292h-2.41a1.986,1.986,0,0,1-1.989-1.989v-.741a1,1,0,0,1,1-1h4.706a.655.655,0,0,1,.654.654v1.108A1.959,1.959,0,0,1,2519.1,1059.292Z" transform="translate(-2448.321 -1008.737)"/><g transform="translate(71.933 47.675)"><path class="ae" d="M2509.577,1057.6a5.444,5.444,0,0,1,4.032,0l.147-.327a5.706,5.706,0,0,0-4.326,0Z" transform="translate(-2509.43 -1056.836)"/></g></g><g transform="translate(-313 -180.167)"><path class="e" d="M1113.024,1061.827a7.992,7.992,0,0,0-7.994,7.994v57.119a15.29,15.29,0,0,0,9.929,14.316,9.234,9.234,0,0,1,5.906,7.928h24.581s1.073-5.5,5.578-6.972h0c6.008-2.5,11.089-6.235,10.257-15.163v-56.805a8.428,8.428,0,0,0-8.425-8.425h-39.832Z" transform="translate(-2.362)"/><path class="u" d="M1160.541,1126.622h-55.966a1.1,1.1,0,0,1-1.1-1.1v-6.242a1.1,1.1,0,0,1,1.1-1.1h55.966a1.1,1.1,0,0,1,1.1,1.1v6.242A1.089,1.089,0,0,1,1160.541,1126.622Z" transform="translate(-1.944 -15.217)"/><path class="u" d="M1160.541,1151.082h-55.966a1.1,1.1,0,0,1-1.1-1.095v-6.242a1.1,1.1,0,0,1,1.1-1.1h55.966a1.1,1.1,0,0,1,1.1,1.1v6.242A1.094,1.094,0,0,1,1160.541,1151.082Z" transform="translate(-1.944 -21.82)"/><path class="d" d="M1153.908,1182.541H1119.18l1.029-3.417a2.065,2.065,0,0,1,1.978-1.475h28.523a2.071,2.071,0,0,1,1.949,1.373Z" transform="translate(-6.182 -31.268)"/><path class="ak" d="M1161.853,1378.774h-60.711a4.86,4.86,0,0,1-4.862-4.862V1189.2a4.86,4.86,0,0,1,4.862-4.862h60.711a4.86,4.86,0,0,1,4.862,4.862v184.71A4.865,4.865,0,0,1,1161.853,1378.774Z" transform="translate(0 -33.075)"/><rect class="d" width="46.957" height="64.076" transform="translate(1108.136 1181.351)"/><rect class="e" width="46.957" height="14.426" transform="translate(1108.136 1181.351)"/><g transform="translate(1137.155 1201.048)"><rect class="c" width="6.169" height="13.185" transform="translate(0 0)"/><rect class="u" width="6.169" height="3.504" transform="translate(0 0)"/></g><g transform="translate(1119.415 1201.048)"><rect class="c" width="6.169" height="13.185" transform="translate(0 0)"/><rect class="z" width="6.169" height="3.504" transform="translate(0 0)"/></g><path class="c" d="M1129.706,1270.485l.613,3.037a.539.539,0,0,0,.526.431h1.073a.532.532,0,0,0,.526-.423l.635-3.037a.53.53,0,0,0-.526-.642h-2.322A.531.531,0,0,0,1129.706,1270.485Z" transform="translate(-9.021 -56.158)"/><path class="c" d="M1154.176,1270.485l.613,3.037a.539.539,0,0,0,.526.431h1.073a.533.533,0,0,0,.526-.423l.635-3.037a.53.53,0,0,0-.526-.642H1154.7A.531.531,0,0,0,1154.176,1270.485Z" transform="translate(-15.626 -56.158)"/><rect class="e" width="38.517" height="1.592" transform="translate(1112.049 1243.836)"/><g transform="translate(1107.771 1251.669)"><path class="e" d="M1156.582,1342.166h-41.438a3.128,3.128,0,0,1-3.125-3.125v-14.046a3.128,3.128,0,0,1,3.125-3.125h41.438a3.128,3.128,0,0,1,3.125,3.125v14.046A3.124,3.124,0,0,1,1156.582,1342.166Zm-41.438-19.565a2.4,2.4,0,0,0-2.395,2.395v14.046a2.4,2.4,0,0,0,2.395,2.395h41.438a2.4,2.4,0,0,0,2.395-2.395v-14.046a2.4,2.4,0,0,0-2.395-2.395Z" transform="translate(-1112.02 -1321.87)"/></g><rect class="l" width="4.526" height="2.322" transform="translate(1105.325 1345.699)"/><rect class="l" width="4.526" height="2.322" transform="translate(1154.239 1345.699)"/></g></g></g></svg>